<mxfile host="app.diagrams.net" modified="2024-07-04T14:46:04.701Z" agent="Mozilla/5.0 (Windows NT 10.0; Win64; x64) AppleWebKit/537.36 (KHTML, like Gecko) Chrome/126.0.0.0 Safari/537.36" etag="IGfZsN_LArqOACJLANrX" version="24.6.4" type="device">
  <diagram name="Page-1" id="jRoGgkwGfjCezgixXciD">
    <mxGraphModel dx="2412" dy="810" grid="1" gridSize="10" guides="1" tooltips="1" connect="1" arrows="1" fold="1" page="1" pageScale="1" pageWidth="850" pageHeight="1100" math="0" shadow="0">
      <root>
        <mxCell id="0" />
        <mxCell id="1" parent="0" />
        <mxCell id="wQju1CEu0ZWWCiQyPaQq-1" value="" style="ellipse;whiteSpace=wrap;html=1;align=center;aspect=fixed;fillColor=none;strokeColor=none;resizable=0;perimeter=centerPerimeter;rotatable=0;allowArrows=0;points=[];outlineConnect=1;" parent="1" vertex="1">
          <mxGeometry x="-30" y="40" width="10" height="10" as="geometry" />
        </mxCell>
        <mxCell id="wQju1CEu0ZWWCiQyPaQq-2" value="STUDENT" style="rounded=0;whiteSpace=wrap;html=1;" parent="1" vertex="1">
          <mxGeometry x="280" y="120" width="120" height="20" as="geometry" />
        </mxCell>
        <mxCell id="wQju1CEu0ZWWCiQyPaQq-3" value="EVENT" style="rounded=0;whiteSpace=wrap;html=1;" parent="1" vertex="1">
          <mxGeometry x="280" y="600" width="120" height="20" as="geometry" />
        </mxCell>
        <mxCell id="wQju1CEu0ZWWCiQyPaQq-4" value="TERM" style="rounded=0;whiteSpace=wrap;html=1;" parent="1" vertex="1">
          <mxGeometry x="280" y="440" width="120" height="20" as="geometry" />
        </mxCell>
        <mxCell id="wQju1CEu0ZWWCiQyPaQq-5" value="MEMBER" style="rounded=0;whiteSpace=wrap;html=1;" parent="1" vertex="1">
          <mxGeometry x="480" y="280" width="120" height="20" as="geometry" />
        </mxCell>
        <mxCell id="wQju1CEu0ZWWCiQyPaQq-6" value="VALID_FOR" style="rhombus;whiteSpace=wrap;html=1;" parent="1" vertex="1">
          <mxGeometry x="380" y="350" width="120" height="40" as="geometry" />
        </mxCell>
        <mxCell id="wQju1CEu0ZWWCiQyPaQq-7" value="EXECUTIVE" style="rounded=0;whiteSpace=wrap;html=1;" parent="1" vertex="1">
          <mxGeometry x="80" y="280" width="120" height="20" as="geometry" />
        </mxCell>
        <mxCell id="wQju1CEu0ZWWCiQyPaQq-8" value="WORKS_FOR" style="rhombus;whiteSpace=wrap;html=1;" parent="1" vertex="1">
          <mxGeometry x="180" y="350" width="120" height="40" as="geometry" />
        </mxCell>
        <mxCell id="wQju1CEu0ZWWCiQyPaQq-9" value="ASSIGN_&lt;br&gt;LEVEL" style="rhombus;whiteSpace=wrap;html=1;" parent="1" vertex="1">
          <mxGeometry x="280" y="270" width="120" height="40" as="geometry" />
        </mxCell>
        <mxCell id="wQju1CEu0ZWWCiQyPaQq-10" value="" style="shape=link;html=1;rounded=0;" parent="1" source="wQju1CEu0ZWWCiQyPaQq-7" target="wQju1CEu0ZWWCiQyPaQq-8" edge="1">
          <mxGeometry width="100" relative="1" as="geometry">
            <mxPoint x="100" y="350" as="sourcePoint" />
            <mxPoint x="200" y="350" as="targetPoint" />
          </mxGeometry>
        </mxCell>
        <mxCell id="wQju1CEu0ZWWCiQyPaQq-11" value="M" style="edgeLabel;html=1;align=center;verticalAlign=middle;resizable=0;points=[];" parent="wQju1CEu0ZWWCiQyPaQq-10" vertex="1" connectable="0">
          <mxGeometry x="0.0816" relative="1" as="geometry">
            <mxPoint as="offset" />
          </mxGeometry>
        </mxCell>
        <mxCell id="wQju1CEu0ZWWCiQyPaQq-12" value="" style="shape=link;html=1;rounded=0;" parent="1" source="wQju1CEu0ZWWCiQyPaQq-8" target="wQju1CEu0ZWWCiQyPaQq-4" edge="1">
          <mxGeometry width="100" relative="1" as="geometry">
            <mxPoint x="210" y="430" as="sourcePoint" />
            <mxPoint x="310" y="430" as="targetPoint" />
          </mxGeometry>
        </mxCell>
        <mxCell id="wQju1CEu0ZWWCiQyPaQq-13" value="N" style="edgeLabel;html=1;align=center;verticalAlign=middle;resizable=0;points=[];" parent="wQju1CEu0ZWWCiQyPaQq-12" vertex="1" connectable="0">
          <mxGeometry x="-0.0922" y="-2" relative="1" as="geometry">
            <mxPoint as="offset" />
          </mxGeometry>
        </mxCell>
        <mxCell id="wQju1CEu0ZWWCiQyPaQq-14" value="" style="endArrow=none;html=1;rounded=0;" parent="1" source="wQju1CEu0ZWWCiQyPaQq-4" target="wQju1CEu0ZWWCiQyPaQq-6" edge="1">
          <mxGeometry width="50" height="50" relative="1" as="geometry">
            <mxPoint x="440" y="450" as="sourcePoint" />
            <mxPoint x="490" y="400" as="targetPoint" />
          </mxGeometry>
        </mxCell>
        <mxCell id="wQju1CEu0ZWWCiQyPaQq-15" value="N" style="edgeLabel;html=1;align=center;verticalAlign=middle;resizable=0;points=[];" parent="wQju1CEu0ZWWCiQyPaQq-14" vertex="1" connectable="0">
          <mxGeometry x="0.0369" y="1" relative="1" as="geometry">
            <mxPoint as="offset" />
          </mxGeometry>
        </mxCell>
        <mxCell id="wQju1CEu0ZWWCiQyPaQq-16" value="" style="shape=link;html=1;rounded=0;" parent="1" source="wQju1CEu0ZWWCiQyPaQq-6" target="wQju1CEu0ZWWCiQyPaQq-5" edge="1">
          <mxGeometry width="100" relative="1" as="geometry">
            <mxPoint x="590" y="360" as="sourcePoint" />
            <mxPoint x="690" y="360" as="targetPoint" />
          </mxGeometry>
        </mxCell>
        <mxCell id="wQju1CEu0ZWWCiQyPaQq-17" value="M" style="edgeLabel;html=1;align=center;verticalAlign=middle;resizable=0;points=[];" parent="wQju1CEu0ZWWCiQyPaQq-16" vertex="1" connectable="0">
          <mxGeometry x="-0.0938" relative="1" as="geometry">
            <mxPoint as="offset" />
          </mxGeometry>
        </mxCell>
        <mxCell id="wQju1CEu0ZWWCiQyPaQq-18" value="" style="endArrow=none;html=1;rounded=0;" parent="1" source="wQju1CEu0ZWWCiQyPaQq-7" target="wQju1CEu0ZWWCiQyPaQq-9" edge="1">
          <mxGeometry width="50" height="50" relative="1" as="geometry">
            <mxPoint x="260" y="280" as="sourcePoint" />
            <mxPoint x="310" y="230" as="targetPoint" />
          </mxGeometry>
        </mxCell>
        <mxCell id="wQju1CEu0ZWWCiQyPaQq-19" value="1" style="edgeLabel;html=1;align=center;verticalAlign=middle;resizable=0;points=[];" parent="wQju1CEu0ZWWCiQyPaQq-18" vertex="1" connectable="0">
          <mxGeometry x="-0.0321" relative="1" as="geometry">
            <mxPoint as="offset" />
          </mxGeometry>
        </mxCell>
        <mxCell id="wQju1CEu0ZWWCiQyPaQq-20" value="" style="endArrow=none;html=1;rounded=0;" parent="1" source="wQju1CEu0ZWWCiQyPaQq-9" target="wQju1CEu0ZWWCiQyPaQq-5" edge="1">
          <mxGeometry width="50" height="50" relative="1" as="geometry">
            <mxPoint x="400" y="260" as="sourcePoint" />
            <mxPoint x="480" y="260" as="targetPoint" />
          </mxGeometry>
        </mxCell>
        <mxCell id="wQju1CEu0ZWWCiQyPaQq-21" value="M" style="edgeLabel;html=1;align=center;verticalAlign=middle;resizable=0;points=[];" parent="wQju1CEu0ZWWCiQyPaQq-20" vertex="1" connectable="0">
          <mxGeometry x="0.0036" relative="1" as="geometry">
            <mxPoint as="offset" />
          </mxGeometry>
        </mxCell>
        <mxCell id="wQju1CEu0ZWWCiQyPaQq-22" value="&lt;b&gt;o&lt;/b&gt;" style="ellipse;whiteSpace=wrap;html=1;aspect=fixed;" parent="1" vertex="1">
          <mxGeometry x="330" y="200" width="20" height="20" as="geometry" />
        </mxCell>
        <mxCell id="wQju1CEu0ZWWCiQyPaQq-23" value="" style="endArrow=none;html=1;rounded=0;" parent="1" source="wQju1CEu0ZWWCiQyPaQq-7" target="wQju1CEu0ZWWCiQyPaQq-22" edge="1">
          <mxGeometry width="50" height="50" relative="1" as="geometry">
            <mxPoint x="180" y="250" as="sourcePoint" />
            <mxPoint x="230" y="200" as="targetPoint" />
          </mxGeometry>
        </mxCell>
        <mxCell id="wQju1CEu0ZWWCiQyPaQq-24" value="" style="endArrow=none;html=1;rounded=0;" parent="1" source="wQju1CEu0ZWWCiQyPaQq-22" target="wQju1CEu0ZWWCiQyPaQq-5" edge="1">
          <mxGeometry width="50" height="50" relative="1" as="geometry">
            <mxPoint x="434" y="220" as="sourcePoint" />
            <mxPoint x="600" y="154" as="targetPoint" />
          </mxGeometry>
        </mxCell>
        <mxCell id="wQju1CEu0ZWWCiQyPaQq-25" value="HAS" style="rhombus;whiteSpace=wrap;html=1;" parent="1" vertex="1">
          <mxGeometry x="280" y="510" width="120" height="40" as="geometry" />
        </mxCell>
        <mxCell id="wQju1CEu0ZWWCiQyPaQq-26" value="ATTEND" style="rhombus;whiteSpace=wrap;html=1;" parent="1" vertex="1">
          <mxGeometry x="480" y="390" width="120" height="40" as="geometry" />
        </mxCell>
        <mxCell id="wQju1CEu0ZWWCiQyPaQq-27" value="TOURNAMENT" style="rounded=0;whiteSpace=wrap;html=1;" parent="1" vertex="1">
          <mxGeometry x="680" y="600" width="120" height="20" as="geometry" />
        </mxCell>
        <mxCell id="wQju1CEu0ZWWCiQyPaQq-28" value="SESSION" style="rounded=0;whiteSpace=wrap;html=1;" parent="1" vertex="1">
          <mxGeometry x="480" y="520" width="120" height="20" as="geometry" />
        </mxCell>
        <mxCell id="wQju1CEu0ZWWCiQyPaQq-29" value="&lt;b&gt;d&lt;/b&gt;" style="ellipse;whiteSpace=wrap;html=1;aspect=fixed;" parent="1" vertex="1">
          <mxGeometry x="530" y="600" width="20" height="20" as="geometry" />
        </mxCell>
        <mxCell id="wQju1CEu0ZWWCiQyPaQq-30" value="" style="endArrow=none;html=1;rounded=0;" parent="1" source="wQju1CEu0ZWWCiQyPaQq-27" target="wQju1CEu0ZWWCiQyPaQq-29" edge="1">
          <mxGeometry width="50" height="50" relative="1" as="geometry">
            <mxPoint x="165" y="760" as="sourcePoint" />
            <mxPoint x="230" y="680" as="targetPoint" />
          </mxGeometry>
        </mxCell>
        <mxCell id="wQju1CEu0ZWWCiQyPaQq-31" value="" style="endArrow=none;html=1;rounded=0;" parent="1" source="wQju1CEu0ZWWCiQyPaQq-29" target="wQju1CEu0ZWWCiQyPaQq-28" edge="1">
          <mxGeometry width="50" height="50" relative="1" as="geometry">
            <mxPoint x="434" y="700" as="sourcePoint" />
            <mxPoint x="515" y="760" as="targetPoint" />
          </mxGeometry>
        </mxCell>
        <mxCell id="wQju1CEu0ZWWCiQyPaQq-32" value="" style="shape=link;html=1;rounded=0;" parent="1" source="wQju1CEu0ZWWCiQyPaQq-4" target="wQju1CEu0ZWWCiQyPaQq-25" edge="1">
          <mxGeometry width="100" relative="1" as="geometry">
            <mxPoint x="410" y="500" as="sourcePoint" />
            <mxPoint x="510" y="500" as="targetPoint" />
          </mxGeometry>
        </mxCell>
        <mxCell id="wQju1CEu0ZWWCiQyPaQq-33" value="1" style="edgeLabel;html=1;align=center;verticalAlign=middle;resizable=0;points=[];" parent="wQju1CEu0ZWWCiQyPaQq-32" vertex="1" connectable="0">
          <mxGeometry x="0.1434" relative="1" as="geometry">
            <mxPoint as="offset" />
          </mxGeometry>
        </mxCell>
        <mxCell id="wQju1CEu0ZWWCiQyPaQq-34" value="" style="shape=link;html=1;rounded=0;" parent="1" source="wQju1CEu0ZWWCiQyPaQq-3" target="wQju1CEu0ZWWCiQyPaQq-25" edge="1">
          <mxGeometry width="100" relative="1" as="geometry">
            <mxPoint x="280" y="570" as="sourcePoint" />
            <mxPoint x="380" y="570" as="targetPoint" />
          </mxGeometry>
        </mxCell>
        <mxCell id="wQju1CEu0ZWWCiQyPaQq-35" value="M" style="edgeLabel;html=1;align=center;verticalAlign=middle;resizable=0;points=[];" parent="wQju1CEu0ZWWCiQyPaQq-34" vertex="1" connectable="0">
          <mxGeometry x="0.2014" relative="1" as="geometry">
            <mxPoint as="offset" />
          </mxGeometry>
        </mxCell>
        <mxCell id="wQju1CEu0ZWWCiQyPaQq-36" value="" style="endArrow=none;html=1;rounded=0;" parent="1" source="wQju1CEu0ZWWCiQyPaQq-26" target="wQju1CEu0ZWWCiQyPaQq-5" edge="1">
          <mxGeometry width="50" height="50" relative="1" as="geometry">
            <mxPoint x="640" y="350" as="sourcePoint" />
            <mxPoint x="690" y="300" as="targetPoint" />
          </mxGeometry>
        </mxCell>
        <mxCell id="wQju1CEu0ZWWCiQyPaQq-37" value="M" style="edgeLabel;html=1;align=center;verticalAlign=middle;resizable=0;points=[];" parent="wQju1CEu0ZWWCiQyPaQq-36" vertex="1" connectable="0">
          <mxGeometry x="-0.0667" relative="1" as="geometry">
            <mxPoint as="offset" />
          </mxGeometry>
        </mxCell>
        <mxCell id="wQju1CEu0ZWWCiQyPaQq-38" value="" style="endArrow=none;html=1;rounded=0;" parent="1" source="wQju1CEu0ZWWCiQyPaQq-28" target="wQju1CEu0ZWWCiQyPaQq-26" edge="1">
          <mxGeometry width="50" height="50" relative="1" as="geometry">
            <mxPoint x="600" y="490" as="sourcePoint" />
            <mxPoint x="650" y="440" as="targetPoint" />
          </mxGeometry>
        </mxCell>
        <mxCell id="wQju1CEu0ZWWCiQyPaQq-39" value="N" style="edgeLabel;html=1;align=center;verticalAlign=middle;resizable=0;points=[];" parent="wQju1CEu0ZWWCiQyPaQq-38" vertex="1" connectable="0">
          <mxGeometry x="0.0667" relative="1" as="geometry">
            <mxPoint as="offset" />
          </mxGeometry>
        </mxCell>
        <mxCell id="wQju1CEu0ZWWCiQyPaQq-40" value="MAKE" style="rhombus;whiteSpace=wrap;html=1;" parent="1" vertex="1">
          <mxGeometry x="680" y="270" width="120" height="40" as="geometry" />
        </mxCell>
        <mxCell id="wQju1CEu0ZWWCiQyPaQq-41" value="TEAM" style="rounded=0;whiteSpace=wrap;html=1;" parent="1" vertex="1">
          <mxGeometry x="680" y="370" width="120" height="20" as="geometry" />
        </mxCell>
        <mxCell id="wQju1CEu0ZWWCiQyPaQq-42" value="COMPETE" style="rhombus;whiteSpace=wrap;html=1;" parent="1" vertex="1">
          <mxGeometry x="680" y="470" width="120" height="40" as="geometry" />
        </mxCell>
        <mxCell id="wQju1CEu0ZWWCiQyPaQq-43" value="" style="endArrow=none;html=1;rounded=0;" parent="1" source="wQju1CEu0ZWWCiQyPaQq-40" target="wQju1CEu0ZWWCiQyPaQq-5" edge="1">
          <mxGeometry width="50" height="50" relative="1" as="geometry">
            <mxPoint x="810" y="310" as="sourcePoint" />
            <mxPoint x="750" y="280" as="targetPoint" />
          </mxGeometry>
        </mxCell>
        <mxCell id="wQju1CEu0ZWWCiQyPaQq-44" value="M" style="edgeLabel;html=1;align=center;verticalAlign=middle;resizable=0;points=[];" parent="wQju1CEu0ZWWCiQyPaQq-43" vertex="1" connectable="0">
          <mxGeometry x="-0.0107" relative="1" as="geometry">
            <mxPoint as="offset" />
          </mxGeometry>
        </mxCell>
        <mxCell id="wQju1CEu0ZWWCiQyPaQq-45" value="" style="shape=link;html=1;rounded=0;" parent="1" source="wQju1CEu0ZWWCiQyPaQq-40" target="wQju1CEu0ZWWCiQyPaQq-41" edge="1">
          <mxGeometry width="100" relative="1" as="geometry">
            <mxPoint x="770" y="460" as="sourcePoint" />
            <mxPoint x="890" y="460" as="targetPoint" />
          </mxGeometry>
        </mxCell>
        <mxCell id="wQju1CEu0ZWWCiQyPaQq-46" value="N" style="edgeLabel;html=1;align=center;verticalAlign=middle;resizable=0;points=[];" parent="wQju1CEu0ZWWCiQyPaQq-45" vertex="1" connectable="0">
          <mxGeometry x="0.0381" relative="1" as="geometry">
            <mxPoint as="offset" />
          </mxGeometry>
        </mxCell>
        <mxCell id="wQju1CEu0ZWWCiQyPaQq-47" value="" style="shape=link;html=1;rounded=0;" parent="1" source="wQju1CEu0ZWWCiQyPaQq-42" target="wQju1CEu0ZWWCiQyPaQq-41" edge="1">
          <mxGeometry width="100" relative="1" as="geometry">
            <mxPoint x="890" y="560" as="sourcePoint" />
            <mxPoint x="990" y="560" as="targetPoint" />
          </mxGeometry>
        </mxCell>
        <mxCell id="wQju1CEu0ZWWCiQyPaQq-48" value="M" style="edgeLabel;html=1;align=center;verticalAlign=middle;resizable=0;points=[];" parent="wQju1CEu0ZWWCiQyPaQq-47" vertex="1" connectable="0">
          <mxGeometry x="0.0071" relative="1" as="geometry">
            <mxPoint as="offset" />
          </mxGeometry>
        </mxCell>
        <mxCell id="wQju1CEu0ZWWCiQyPaQq-49" value="" style="shape=link;html=1;rounded=0;" parent="1" source="wQju1CEu0ZWWCiQyPaQq-27" target="wQju1CEu0ZWWCiQyPaQq-42" edge="1">
          <mxGeometry width="100" relative="1" as="geometry">
            <mxPoint x="710" y="640" as="sourcePoint" />
            <mxPoint x="810" y="640" as="targetPoint" />
          </mxGeometry>
        </mxCell>
        <mxCell id="wQju1CEu0ZWWCiQyPaQq-50" value="1" style="edgeLabel;html=1;align=center;verticalAlign=middle;resizable=0;points=[];" parent="wQju1CEu0ZWWCiQyPaQq-49" vertex="1" connectable="0">
          <mxGeometry x="0.0667" relative="1" as="geometry">
            <mxPoint as="offset" />
          </mxGeometry>
        </mxCell>
        <mxCell id="wQju1CEu0ZWWCiQyPaQq-51" value="StdNo" style="ellipse;whiteSpace=wrap;html=1;fontStyle=4" parent="1" vertex="1">
          <mxGeometry x="190" y="110" width="50" height="20" as="geometry" />
        </mxCell>
        <mxCell id="wQju1CEu0ZWWCiQyPaQq-52" value="FName" style="ellipse;whiteSpace=wrap;html=1;fontStyle=0" parent="1" vertex="1">
          <mxGeometry x="230" y="80" width="50" height="20" as="geometry" />
        </mxCell>
        <mxCell id="wQju1CEu0ZWWCiQyPaQq-53" value="LName" style="ellipse;whiteSpace=wrap;html=1;fontStyle=0" parent="1" vertex="1">
          <mxGeometry x="280" y="60" width="50" height="20" as="geometry" />
        </mxCell>
        <mxCell id="wQju1CEu0ZWWCiQyPaQq-54" value="Email" style="ellipse;whiteSpace=wrap;html=1;fontStyle=4" parent="1" vertex="1">
          <mxGeometry x="350" y="60" width="50" height="20" as="geometry" />
        </mxCell>
        <mxCell id="wQju1CEu0ZWWCiQyPaQq-55" value="Gender" style="ellipse;whiteSpace=wrap;html=1;fontStyle=0" parent="1" vertex="1">
          <mxGeometry x="410" y="80" width="50" height="20" as="geometry" />
        </mxCell>
        <mxCell id="wQju1CEu0ZWWCiQyPaQq-56" value="Faculty" style="ellipse;whiteSpace=wrap;html=1;fontStyle=0" parent="1" vertex="1">
          <mxGeometry x="440" y="110" width="50" height="20" as="geometry" />
        </mxCell>
        <mxCell id="wQju1CEu0ZWWCiQyPaQq-57" value="" style="shape=link;html=1;rounded=0;" parent="1" source="wQju1CEu0ZWWCiQyPaQq-2" target="wQju1CEu0ZWWCiQyPaQq-22" edge="1">
          <mxGeometry width="100" relative="1" as="geometry">
            <mxPoint x="320" y="170" as="sourcePoint" />
            <mxPoint x="420" y="170" as="targetPoint" />
          </mxGeometry>
        </mxCell>
        <mxCell id="wQju1CEu0ZWWCiQyPaQq-58" value="" style="endArrow=none;html=1;rounded=0;" parent="1" source="wQju1CEu0ZWWCiQyPaQq-2" target="wQju1CEu0ZWWCiQyPaQq-51" edge="1">
          <mxGeometry width="50" height="50" relative="1" as="geometry">
            <mxPoint x="220" y="190" as="sourcePoint" />
            <mxPoint x="270" y="140" as="targetPoint" />
          </mxGeometry>
        </mxCell>
        <mxCell id="wQju1CEu0ZWWCiQyPaQq-59" value="" style="endArrow=none;html=1;rounded=0;" parent="1" source="wQju1CEu0ZWWCiQyPaQq-2" target="wQju1CEu0ZWWCiQyPaQq-52" edge="1">
          <mxGeometry width="50" height="50" relative="1" as="geometry">
            <mxPoint x="290" y="135" as="sourcePoint" />
            <mxPoint x="250" y="132" as="targetPoint" />
          </mxGeometry>
        </mxCell>
        <mxCell id="wQju1CEu0ZWWCiQyPaQq-60" value="" style="endArrow=none;html=1;rounded=0;" parent="1" source="wQju1CEu0ZWWCiQyPaQq-2" target="wQju1CEu0ZWWCiQyPaQq-53" edge="1">
          <mxGeometry width="50" height="50" relative="1" as="geometry">
            <mxPoint x="329" y="130" as="sourcePoint" />
            <mxPoint x="281" y="108" as="targetPoint" />
          </mxGeometry>
        </mxCell>
        <mxCell id="wQju1CEu0ZWWCiQyPaQq-61" value="" style="endArrow=none;html=1;rounded=0;" parent="1" source="wQju1CEu0ZWWCiQyPaQq-2" target="wQju1CEu0ZWWCiQyPaQq-54" edge="1">
          <mxGeometry width="50" height="50" relative="1" as="geometry">
            <mxPoint x="350" y="130" as="sourcePoint" />
            <mxPoint x="291" y="118" as="targetPoint" />
          </mxGeometry>
        </mxCell>
        <mxCell id="wQju1CEu0ZWWCiQyPaQq-62" value="" style="endArrow=none;html=1;rounded=0;" parent="1" source="wQju1CEu0ZWWCiQyPaQq-55" target="wQju1CEu0ZWWCiQyPaQq-2" edge="1">
          <mxGeometry width="50" height="50" relative="1" as="geometry">
            <mxPoint x="349" y="150" as="sourcePoint" />
            <mxPoint x="301" y="128" as="targetPoint" />
          </mxGeometry>
        </mxCell>
        <mxCell id="wQju1CEu0ZWWCiQyPaQq-63" value="" style="endArrow=none;html=1;rounded=0;" parent="1" source="wQju1CEu0ZWWCiQyPaQq-56" target="wQju1CEu0ZWWCiQyPaQq-2" edge="1">
          <mxGeometry width="50" height="50" relative="1" as="geometry">
            <mxPoint x="359" y="160" as="sourcePoint" />
            <mxPoint x="311" y="138" as="targetPoint" />
          </mxGeometry>
        </mxCell>
        <mxCell id="wQju1CEu0ZWWCiQyPaQq-64" value="" style="shape=link;html=1;rounded=0;" parent="1" source="wQju1CEu0ZWWCiQyPaQq-3" target="wQju1CEu0ZWWCiQyPaQq-29" edge="1">
          <mxGeometry width="100" relative="1" as="geometry">
            <mxPoint x="420" y="609.76" as="sourcePoint" />
            <mxPoint x="520" y="609.76" as="targetPoint" />
          </mxGeometry>
        </mxCell>
        <mxCell id="wQju1CEu0ZWWCiQyPaQq-65" value="ExecTeam" style="ellipse;whiteSpace=wrap;html=1;fontStyle=0" parent="1" vertex="1">
          <mxGeometry x="90" y="380" width="70" height="20" as="geometry" />
        </mxCell>
        <mxCell id="wQju1CEu0ZWWCiQyPaQq-66" value="" style="endArrow=none;html=1;rounded=0;" parent="1" source="wQju1CEu0ZWWCiQyPaQq-8" target="wQju1CEu0ZWWCiQyPaQq-65" edge="1">
          <mxGeometry width="50" height="50" relative="1" as="geometry">
            <mxPoint x="40" y="290" as="sourcePoint" />
            <mxPoint x="90" y="240" as="targetPoint" />
          </mxGeometry>
        </mxCell>
        <mxCell id="wQju1CEu0ZWWCiQyPaQq-67" value="Year" style="ellipse;whiteSpace=wrap;html=1;fontStyle=0" parent="1" vertex="1">
          <mxGeometry x="175" y="460" width="50" height="20" as="geometry" />
        </mxCell>
        <mxCell id="wQju1CEu0ZWWCiQyPaQq-68" value="Season" style="ellipse;whiteSpace=wrap;html=1;fontStyle=0" parent="1" vertex="1">
          <mxGeometry x="225" y="480" width="50" height="20" as="geometry" />
        </mxCell>
        <mxCell id="wQju1CEu0ZWWCiQyPaQq-69" value="" style="endArrow=none;html=1;rounded=0;" parent="1" source="wQju1CEu0ZWWCiQyPaQq-4" target="wQju1CEu0ZWWCiQyPaQq-67" edge="1">
          <mxGeometry width="50" height="50" relative="1" as="geometry">
            <mxPoint x="100" y="470" as="sourcePoint" />
            <mxPoint x="150" y="420" as="targetPoint" />
          </mxGeometry>
        </mxCell>
        <mxCell id="wQju1CEu0ZWWCiQyPaQq-70" value="" style="endArrow=none;html=1;rounded=0;" parent="1" source="wQju1CEu0ZWWCiQyPaQq-4" target="wQju1CEu0ZWWCiQyPaQq-68" edge="1">
          <mxGeometry width="50" height="50" relative="1" as="geometry">
            <mxPoint x="290" y="456" as="sourcePoint" />
            <mxPoint x="240" y="452" as="targetPoint" />
          </mxGeometry>
        </mxCell>
        <mxCell id="wQju1CEu0ZWWCiQyPaQq-71" value="Date" style="ellipse;whiteSpace=wrap;html=1;fontStyle=0" parent="1" vertex="1">
          <mxGeometry x="175" y="570" width="50" height="20" as="geometry" />
        </mxCell>
        <mxCell id="wQju1CEu0ZWWCiQyPaQq-72" value="TCode" style="ellipse;whiteSpace=wrap;html=1;fontStyle=4" parent="1" vertex="1">
          <mxGeometry x="170" y="430" width="50" height="20" as="geometry" />
        </mxCell>
        <mxCell id="wQju1CEu0ZWWCiQyPaQq-73" value="" style="endArrow=none;html=1;rounded=0;" parent="1" source="wQju1CEu0ZWWCiQyPaQq-4" target="wQju1CEu0ZWWCiQyPaQq-72" edge="1">
          <mxGeometry width="50" height="50" relative="1" as="geometry">
            <mxPoint x="250" y="470" as="sourcePoint" />
            <mxPoint x="130" y="450" as="targetPoint" />
          </mxGeometry>
        </mxCell>
        <mxCell id="wQju1CEu0ZWWCiQyPaQq-74" value="StartTime" style="ellipse;whiteSpace=wrap;html=1;fontStyle=0" parent="1" vertex="1">
          <mxGeometry x="160" y="600" width="60" height="20" as="geometry" />
        </mxCell>
        <mxCell id="wQju1CEu0ZWWCiQyPaQq-75" value="EndTime" style="ellipse;whiteSpace=wrap;html=1;fontStyle=0" parent="1" vertex="1">
          <mxGeometry x="175" y="630" width="60" height="20" as="geometry" />
        </mxCell>
        <mxCell id="wQju1CEu0ZWWCiQyPaQq-76" value="Levels" style="ellipse;shape=doubleEllipse;margin=3;whiteSpace=wrap;html=1;align=center;" parent="1" vertex="1">
          <mxGeometry x="215" y="660" width="60" height="20" as="geometry" />
        </mxCell>
        <mxCell id="wQju1CEu0ZWWCiQyPaQq-77" value="" style="endArrow=none;html=1;rounded=0;" parent="1" source="wQju1CEu0ZWWCiQyPaQq-71" target="wQju1CEu0ZWWCiQyPaQq-3" edge="1">
          <mxGeometry relative="1" as="geometry">
            <mxPoint x="235" y="540" as="sourcePoint" />
            <mxPoint x="300" y="570" as="targetPoint" />
          </mxGeometry>
        </mxCell>
        <mxCell id="wQju1CEu0ZWWCiQyPaQq-78" value="" style="endArrow=none;html=1;rounded=0;" parent="1" source="wQju1CEu0ZWWCiQyPaQq-74" target="wQju1CEu0ZWWCiQyPaQq-3" edge="1">
          <mxGeometry relative="1" as="geometry">
            <mxPoint x="245" y="550" as="sourcePoint" />
            <mxPoint x="335" y="610" as="targetPoint" />
          </mxGeometry>
        </mxCell>
        <mxCell id="wQju1CEu0ZWWCiQyPaQq-79" value="" style="endArrow=none;html=1;rounded=0;" parent="1" source="wQju1CEu0ZWWCiQyPaQq-75" target="wQju1CEu0ZWWCiQyPaQq-3" edge="1">
          <mxGeometry relative="1" as="geometry">
            <mxPoint x="255" y="560" as="sourcePoint" />
            <mxPoint x="345" y="620" as="targetPoint" />
          </mxGeometry>
        </mxCell>
        <mxCell id="wQju1CEu0ZWWCiQyPaQq-80" value="" style="endArrow=none;html=1;rounded=0;" parent="1" source="wQju1CEu0ZWWCiQyPaQq-76" target="wQju1CEu0ZWWCiQyPaQq-3" edge="1">
          <mxGeometry relative="1" as="geometry">
            <mxPoint x="250" y="620" as="sourcePoint" />
            <mxPoint x="355" y="630" as="targetPoint" />
          </mxGeometry>
        </mxCell>
        <mxCell id="wQju1CEu0ZWWCiQyPaQq-83" value="TourneyName" style="ellipse;whiteSpace=wrap;html=1;fontStyle=0" parent="1" vertex="1">
          <mxGeometry x="700" y="670" width="80" height="20" as="geometry" />
        </mxCell>
        <mxCell id="wQju1CEu0ZWWCiQyPaQq-86" value="" style="endArrow=none;html=1;rounded=0;" parent="1" source="wQju1CEu0ZWWCiQyPaQq-83" target="wQju1CEu0ZWWCiQyPaQq-27" edge="1">
          <mxGeometry width="50" height="50" relative="1" as="geometry">
            <mxPoint x="580" y="750" as="sourcePoint" />
            <mxPoint x="630" y="700" as="targetPoint" />
          </mxGeometry>
        </mxCell>
        <mxCell id="wQju1CEu0ZWWCiQyPaQq-89" value="Location" style="ellipse;whiteSpace=wrap;html=1;fontStyle=0" parent="1" vertex="1">
          <mxGeometry x="280" y="680" width="60" height="20" as="geometry" />
        </mxCell>
        <mxCell id="wQju1CEu0ZWWCiQyPaQq-90" value="" style="endArrow=none;html=1;rounded=0;" parent="1" source="wQju1CEu0ZWWCiQyPaQq-89" target="wQju1CEu0ZWWCiQyPaQq-3" edge="1">
          <mxGeometry relative="1" as="geometry">
            <mxPoint x="269" y="671" as="sourcePoint" />
            <mxPoint x="334" y="630" as="targetPoint" />
          </mxGeometry>
        </mxCell>
        <mxCell id="wQju1CEu0ZWWCiQyPaQq-91" value="TeamId" style="ellipse;whiteSpace=wrap;html=1;fontStyle=4" parent="1" vertex="1">
          <mxGeometry x="820" y="340" width="90" height="20" as="geometry" />
        </mxCell>
        <mxCell id="wQju1CEu0ZWWCiQyPaQq-92" value="TeamName" style="ellipse;whiteSpace=wrap;html=1;fontStyle=0" parent="1" vertex="1">
          <mxGeometry x="820" y="380" width="90" height="20" as="geometry" />
        </mxCell>
        <mxCell id="wQju1CEu0ZWWCiQyPaQq-94" value="" style="endArrow=none;html=1;rounded=0;" parent="1" source="wQju1CEu0ZWWCiQyPaQq-41" target="wQju1CEu0ZWWCiQyPaQq-91" edge="1">
          <mxGeometry width="50" height="50" relative="1" as="geometry">
            <mxPoint x="970" y="360" as="sourcePoint" />
            <mxPoint x="1020" y="310" as="targetPoint" />
          </mxGeometry>
        </mxCell>
        <mxCell id="wQju1CEu0ZWWCiQyPaQq-95" value="" style="endArrow=none;html=1;rounded=0;" parent="1" source="wQju1CEu0ZWWCiQyPaQq-41" target="wQju1CEu0ZWWCiQyPaQq-92" edge="1">
          <mxGeometry width="50" height="50" relative="1" as="geometry">
            <mxPoint x="980" y="370" as="sourcePoint" />
            <mxPoint x="1030" y="320" as="targetPoint" />
          </mxGeometry>
        </mxCell>
        <mxCell id="wQju1CEu0ZWWCiQyPaQq-97" value="Level" style="ellipse;whiteSpace=wrap;html=1;fontStyle=0" parent="1" vertex="1">
          <mxGeometry x="515" y="220" width="50" height="20" as="geometry" />
        </mxCell>
        <mxCell id="wQju1CEu0ZWWCiQyPaQq-98" value="" style="endArrow=none;html=1;rounded=0;" parent="1" source="wQju1CEu0ZWWCiQyPaQq-5" target="wQju1CEu0ZWWCiQyPaQq-97" edge="1">
          <mxGeometry width="50" height="50" relative="1" as="geometry">
            <mxPoint x="580" y="270" as="sourcePoint" />
            <mxPoint x="630" y="220" as="targetPoint" />
          </mxGeometry>
        </mxCell>
        <mxCell id="wQju1CEu0ZWWCiQyPaQq-102" value="" style="endArrow=none;html=1;rounded=0;" parent="1" source="wQju1CEu0ZWWCiQyPaQq-2" target="cNQMAdNMKuLdf3isplLb-2" edge="1">
          <mxGeometry width="50" height="50" relative="1" as="geometry">
            <mxPoint x="410" y="195" as="sourcePoint" />
            <mxPoint x="502.5" y="162.5" as="targetPoint" />
          </mxGeometry>
        </mxCell>
        <mxCell id="wQju1CEu0ZWWCiQyPaQq-107" value="1" style="edgeLabel;html=1;align=center;verticalAlign=middle;resizable=0;points=[];" parent="wQju1CEu0ZWWCiQyPaQq-102" vertex="1" connectable="0">
          <mxGeometry x="0.0521" relative="1" as="geometry">
            <mxPoint as="offset" />
          </mxGeometry>
        </mxCell>
        <mxCell id="wQju1CEu0ZWWCiQyPaQq-105" value="1" style="shape=link;html=1;rounded=0;" parent="1" source="cNQMAdNMKuLdf3isplLb-1" target="cNQMAdNMKuLdf3isplLb-2" edge="1">
          <mxGeometry width="100" relative="1" as="geometry">
            <mxPoint x="680" y="170" as="sourcePoint" />
            <mxPoint x="600" y="170" as="targetPoint" />
          </mxGeometry>
        </mxCell>
        <mxCell id="wQju1CEu0ZWWCiQyPaQq-106" value="1&amp;nbsp;" style="edgeLabel;html=1;align=center;verticalAlign=middle;resizable=0;points=[];" parent="wQju1CEu0ZWWCiQyPaQq-105" vertex="1" connectable="0">
          <mxGeometry x="0.0381" relative="1" as="geometry">
            <mxPoint as="offset" />
          </mxGeometry>
        </mxCell>
        <mxCell id="wQju1CEu0ZWWCiQyPaQq-108" value="Password" style="ellipse;whiteSpace=wrap;html=1;" parent="1" vertex="1">
          <mxGeometry x="705" y="90" width="70" height="20" as="geometry" />
        </mxCell>
        <mxCell id="wQju1CEu0ZWWCiQyPaQq-109" value="" style="endArrow=none;html=1;rounded=0;" parent="1" source="cNQMAdNMKuLdf3isplLb-1" target="wQju1CEu0ZWWCiQyPaQq-108" edge="1">
          <mxGeometry width="50" height="50" relative="1" as="geometry">
            <mxPoint x="740" y="160" as="sourcePoint" />
            <mxPoint x="770" y="70" as="targetPoint" />
          </mxGeometry>
        </mxCell>
        <mxCell id="wQju1CEu0ZWWCiQyPaQq-110" value="&lt;u&gt;EventId&lt;/u&gt;" style="ellipse;whiteSpace=wrap;html=1;fontStyle=0" parent="1" vertex="1">
          <mxGeometry x="350" y="680" width="60" height="20" as="geometry" />
        </mxCell>
        <mxCell id="wQju1CEu0ZWWCiQyPaQq-111" value="" style="endArrow=none;html=1;rounded=0;" parent="1" source="wQju1CEu0ZWWCiQyPaQq-110" target="wQju1CEu0ZWWCiQyPaQq-3" edge="1">
          <mxGeometry relative="1" as="geometry">
            <mxPoint x="309" y="671" as="sourcePoint" />
            <mxPoint x="376" y="620" as="targetPoint" />
          </mxGeometry>
        </mxCell>
        <mxCell id="cNQMAdNMKuLdf3isplLb-1" value="ACCOUNT" style="shape=ext;margin=3;double=1;whiteSpace=wrap;html=1;align=center;" parent="1" vertex="1">
          <mxGeometry x="680" y="150" width="120" height="30" as="geometry" />
        </mxCell>
        <mxCell id="cNQMAdNMKuLdf3isplLb-2" value="USES" style="shape=rhombus;double=1;perimeter=rhombusPerimeter;whiteSpace=wrap;html=1;align=center;" parent="1" vertex="1">
          <mxGeometry x="490" y="145" width="120" height="40" as="geometry" />
        </mxCell>
        <mxCell id="cNQMAdNMKuLdf3isplLb-5" value="" style="shape=requiredInterface;html=1;verticalLabelPosition=bottom;sketch=0;" parent="1" vertex="1">
          <mxGeometry x="610" y="600" width="20" height="20" as="geometry" />
        </mxCell>
        <mxCell id="cNQMAdNMKuLdf3isplLb-7" value="" style="shape=requiredInterface;html=1;verticalLabelPosition=bottom;sketch=0;rotation=-90;" parent="1" vertex="1">
          <mxGeometry x="531" y="561" width="20" height="20" as="geometry" />
        </mxCell>
        <mxCell id="cNQMAdNMKuLdf3isplLb-9" value="" style="shape=requiredInterface;html=1;verticalLabelPosition=bottom;sketch=0;rotation=-200;" parent="1" vertex="1">
          <mxGeometry x="244" y="234" width="20" height="20" as="geometry" />
        </mxCell>
        <mxCell id="cNQMAdNMKuLdf3isplLb-10" value="" style="shape=requiredInterface;html=1;verticalLabelPosition=bottom;sketch=0;rotation=30;" parent="1" vertex="1">
          <mxGeometry x="412" y="234" width="20" height="20" as="geometry" />
        </mxCell>
      </root>
    </mxGraphModel>
  </diagram>
</mxfile>
